# xmcd
#
# Track frame offsets:
#	150
#	10557
#	23082
#	33730
#	44802
#	57165
#	70430
#	81075
#	92067
#	104105
#	114855
#	124577
#	139322
#	151210
#	161200
#
# Disc length: 2336 seconds
#
# Revision: 0
# Processed by: cddbd v1.5.1PL0 Copyright (c) Steve Scherf et al.
# Submitted via: audiograbber 1.83.01
#
DISCID=cb091e0f
DTITLE=Various Artist - Classic Country 1965-1969
DYEAR=1999
DGENRE=Country
TTITLE0=George Jones - Walk Through This World With Me
TTITLE1=Johnny Cash With June Carter - Jackson
TTITLE2=The Statler Brothers - Flowers On The Wall
TTITLE3=Roger Miller - King Of The Road
TTITLE4=Merle Haggard And The Strangers - Okie From Muskogee
TTITLE5=Kenny Rogers and The First Edition - Ruby, Don't Take Your Love To Town
TTITLE6=Johnny Cash - Daddy Sang Bass
TTITLE7=Elvis Presley With The Jordanaires - Crying In The Chapel
TTITLE8=Eddy Arnold - Make The World Go Away
TTITLE9=Waylon Jennings - Only Daddy That'll Walk The Line
TTITLE10=Loretta Lynn - Don't Come Home A Drinkin'
TTITLE11=Jeannie C. Riley - Harper Valley P.T.A.
TTITLE12=Henson Cargill - Skip A Rope
TTITLE13=Merle Haggard - Mama Tried
TTITLE14=Glen Campbell - Wichita Lineman
EXTD=
EXTT0=
EXTT1=
EXTT2=
EXTT3=
EXTT4=
EXTT5=
EXTT6=
EXTT7=
EXTT8=
EXTT9=
EXTT10=
EXTT11=
EXTT12=
EXTT13=
EXTT14=
PLAYORDER=
